<svg width="312" height="272" viewBox="0 0 312 272" fill="none" xmlns="http://www.w3.org/2000/svg">
<path d="M11.8837 165.043L19.9657 164.94C23.1943 167.421 23.7221 171.386 25.1398 173.846C34.1323 189.863 52.9247 193.995 67.2673 182.773C77.2568 174.967 80.1888 162.646 76.0633 145.809C78.8964 146.485 81.8701 146.245 84.5591 145.123C90.1368 151.933 90.3127 161.369 88.181 170.182C86.9337 175.808 84.4722 181.093 80.9698 185.662C77.4674 190.232 73.0092 193.976 67.9089 196.631C67.8269 196.666 67.7529 196.717 67.6913 196.781C67.6298 196.846 67.582 196.922 67.551 197.006C67.52 197.089 67.5064 197.178 67.511 197.268C67.5156 197.357 67.5383 197.444 67.5777 197.524C77.1188 221.534 96.3354 248.814 126.687 238.236C152.95 229.08 176.627 201.821 193.07 180.292C227.52 135.179 256.836 84.3149 282.81 34.5719C282.893 34.4096 282.932 34.2281 282.923 34.0459C282.914 33.8637 282.857 33.687 282.758 33.5338C277.577 25.5894 277.536 18.5238 282.634 12.337C296.718 -4.75953 322.123 16.4892 307.718 33.4716C304.4 37.3746 299.767 39.2362 293.821 39.0562C293.631 39.0434 293.441 39.0868 293.276 39.1809C293.11 39.275 292.976 39.4157 292.889 39.5857L270.392 80.8375C270.258 81.0776 270.225 81.3614 270.299 81.6264C282.027 125.107 293.6 168.621 305.017 212.171C309.063 227.586 297.546 230.16 286.525 233.139C240.993 245.429 195.461 257.689 149.929 269.917C139.694 272.668 131.354 272.242 127.67 261.177C127.63 261.092 127.61 260.999 127.61 260.905C127.61 260.811 127.63 260.719 127.67 260.634C127.709 260.549 127.767 260.473 127.838 260.413C127.91 260.352 127.993 260.308 128.084 260.284C164.189 245.585 194.912 208.621 212.639 174.863C212.95 174.301 213.056 173.648 212.939 173.016C212.924 172.955 212.887 172.902 212.835 172.868C212.784 172.833 212.721 172.819 212.66 172.829C212.597 172.845 212.543 172.881 212.504 172.933C191.808 202.548 140.584 269.824 96.9459 252.104C76.6842 243.872 64.7009 220.319 56.7432 201.095C56.6857 200.909 56.5625 200.75 56.3967 200.649C56.2309 200.548 56.034 200.511 55.8429 200.545C36.5745 202.143 22.5734 194.555 13.8395 177.78C12.2528 174.659 11.6009 170.414 11.8837 165.043ZM301.509 22.6344C301.509 20.9991 300.862 19.4307 299.709 18.2744C298.556 17.118 296.993 16.4684 295.362 16.4684C293.735 16.4819 292.179 17.1356 291.027 18.2887C289.876 19.4419 289.221 21.0023 289.205 22.6344C289.219 24.2683 289.872 25.8314 291.024 26.9867C292.175 28.1421 293.734 28.7972 295.362 28.8108C296.989 28.7945 298.545 28.1382 299.695 26.9831C300.844 25.8281 301.496 24.2665 301.509 22.6344Z" fill="#70BF02"/>
<path d="M295.362 28.8003C298.757 28.8003 301.509 26.0397 301.509 22.6344C301.509 19.229 298.757 16.4684 295.362 16.4684C291.968 16.4684 289.216 19.229 289.216 22.6344C289.216 26.0397 291.968 28.8003 295.362 28.8003Z" fill="white"/>
<path d="M246.686 17.9406L100.96 55.4732C99.8031 55.7712 99.106 56.9535 99.403 58.1141L99.4983 58.4861C99.7953 59.6466 100.974 60.3459 102.131 60.0479L247.857 22.5153C249.014 22.2174 249.711 21.035 249.414 19.8745L249.318 19.5025C249.021 18.3419 247.843 17.6427 246.686 17.9406Z" fill="black"/>
<path d="M248.629 26.1917L98.6833 64.811C97.4323 65.1332 96.6785 66.4118 96.9997 67.6667L97.0151 67.727C97.3364 68.982 98.6109 69.7381 99.862 69.4159L249.807 30.7966C251.059 30.4743 251.812 29.1958 251.491 27.9409L251.476 27.8805C251.154 26.6256 249.88 25.8695 248.629 26.1917Z" fill="black"/>
<path d="M250.638 34.4675L105.323 71.8942C104.061 72.2193 103.301 73.5091 103.625 74.7752L103.635 74.8153C103.959 76.0814 105.245 76.8442 106.507 76.5191L251.822 39.0925C253.084 38.7674 253.844 37.4775 253.52 36.2115L253.51 36.1713C253.186 34.9053 251.9 34.1424 250.638 34.4675Z" fill="black"/>
<path d="M84.5592 145.123C81.8702 146.245 78.8964 146.485 76.0633 145.809C74.651 137.208 72.7087 128.704 70.2476 120.345C68.178 113.608 62.5899 98.1001 51.9623 105.74C42.473 112.56 40.5793 114.657 36.9988 102.221C34.4635 93.3563 46.7054 96.8337 51.1655 95.941C60.3237 94.1348 67.526 95.5258 72.2552 104.245C78.9504 116.64 81.7341 131.504 84.5592 145.123Z" fill="#0177C1"/>
<path d="M19.9657 164.94L11.863 165.012C6.49836 153.38 2.65159 141.103 0.417929 128.484C-2.68653 110.266 12.1838 109.539 22.6252 101.328C22.9301 101.104 23.2855 100.957 23.66 100.903C26.1367 100.543 27.7579 101.429 28.5236 103.56C35.9951 124.321 19.9036 111.024 12.2356 117.273C10.8537 118.366 9.78355 119.805 9.13312 121.445C8.4827 123.085 8.27498 124.869 8.53092 126.615C9.74166 139.009 15.754 152.722 19.9657 164.94Z" fill="#0177C1"/>
<path d="M263.386 55.0628L260.479 45.6686C260.434 45.5286 260.36 45.3998 260.262 45.2906C260.164 45.1815 260.044 45.0945 259.909 45.0354C257.953 44.1823 255.769 44.0034 253.701 44.5267C206.313 57.177 158.935 69.8584 111.568 82.571C93.1999 87.4913 80.9373 65.9623 96.1388 54.5438C99.6779 51.9072 104.252 51.0041 108.846 49.7689C130.743 43.9212 175.996 31.7 244.604 13.1052C253.814 10.6139 250.813 -1.36515 241.873 0.960066C222.28 6.03263 176.079 18.4891 103.269 38.3296C96.6045 40.1496 91.9616 41.9628 89.34 43.769C78.9918 50.8692 74.8526 63.035 78.0605 75.4396C81.6134 89.0241 85.256 102.519 88.9882 115.923L119.94 231.893C119.935 231.914 119.935 231.935 119.94 231.956C120.013 232.159 120.161 232.325 120.354 232.42C120.548 232.515 120.77 232.531 120.975 232.464C143.958 224.534 162.098 206.773 177.641 187.829C194.855 166.889 210.592 144.77 224.736 121.633C238.313 100.083 251.169 78.0728 263.304 55.6026C263.399 55.44 263.429 55.2468 263.386 55.0628Z" fill="#0177C1"/>
</svg>
