<svg width="147" height="49" viewBox="0 0 147 49" fill="none" xmlns="http://www.w3.org/2000/svg">
<rect x="0.19342" y="0.873739" width="146.405" height="47.2525" rx="10" fill="black"/>
<path d="M57.0709 35.3464L55.7328 31.908H50.2761L48.9728 35.3464H47.1481L52.0487 23.0343H54.0124L58.913 35.3464H57.0709ZM52.9871 24.8056L50.8843 30.3278H55.1246L52.9871 24.8056ZM62.0129 38.6458H60.3967V26.9936H61.9781V28.296C62.2214 27.8561 62.5864 27.4972 63.073 27.2194C63.5596 26.9415 64.1272 26.8026 64.776 26.8026C65.9809 26.8026 66.9193 27.2136 67.5913 28.0355C68.2748 28.8575 68.6166 29.8994 68.6166 31.1613C68.6166 32.4348 68.2632 33.4883 67.5565 34.3218C66.8614 35.1553 65.9172 35.5721 64.7239 35.5721C64.1099 35.5721 63.5653 35.4448 63.0903 35.1901C62.6153 34.9354 62.2562 34.6112 62.0129 34.2176V38.6458ZM66.9483 31.1613C66.9483 30.3162 66.7223 29.6216 66.2705 29.0775C65.8303 28.5218 65.2336 28.2439 64.4806 28.2439C63.7391 28.2439 63.1367 28.5218 62.6733 29.0775C62.2214 29.6216 61.9955 30.3162 61.9955 31.1613C61.9955 32.0296 62.2214 32.7416 62.6733 33.2972C63.1367 33.8414 63.7391 34.1134 64.4806 34.1134C65.222 34.1134 65.8187 33.8414 66.2705 33.2972C66.7223 32.7416 66.9483 32.0296 66.9483 31.1613ZM72.3142 38.6458H70.698V26.9936H72.2794V28.296C72.5227 27.8561 72.8877 27.4972 73.3742 27.2194C73.8608 26.9415 74.4285 26.8026 75.0773 26.8026C76.2822 26.8026 77.2206 27.2136 77.8925 28.0355C78.5761 28.8575 78.9178 29.8994 78.9178 31.1613C78.9178 32.4348 78.5645 33.4883 77.8578 34.3218C77.1627 35.1553 76.2184 35.5721 75.0252 35.5721C74.4111 35.5721 73.8666 35.4448 73.3916 35.1901C72.9166 34.9354 72.5575 34.6112 72.3142 34.2176V38.6458ZM77.2495 31.1613C77.2495 30.3162 77.0236 29.6216 76.5718 29.0775C76.1316 28.5218 75.5349 28.2439 74.7819 28.2439C74.0404 28.2439 73.438 28.5218 72.9745 29.0775C72.5227 29.6216 72.2968 30.3162 72.2968 31.1613C72.2968 32.0296 72.5227 32.7416 72.9745 33.2972C73.438 33.8414 74.0404 34.1134 74.7819 34.1134C75.5233 34.1134 76.12 33.8414 76.5718 33.2972C77.0236 32.7416 77.2495 32.0296 77.2495 31.1613ZM93.3728 25.8301L91.8435 26.3684C91.7624 25.8359 91.5018 25.3555 91.0615 24.9271C90.6213 24.4872 90.013 24.2672 89.2368 24.2672C88.5533 24.2672 87.9856 24.464 87.5338 24.8577C87.0815 25.2513 86.8556 25.7375 86.8556 26.3164C86.8556 26.7679 86.9888 27.1499 87.2553 27.4625C87.5338 27.775 87.9277 27.9892 88.4374 28.105L90.2795 28.5044C91.299 28.7244 92.0868 29.1411 92.6429 29.7547C93.199 30.3567 93.4771 31.0918 93.4771 31.9601C93.4771 32.9557 93.0832 33.8124 92.2954 34.5302C91.5075 35.248 90.4822 35.6068 89.2194 35.6068C87.8408 35.6068 86.7571 35.248 85.9693 34.5302C85.1931 33.8008 84.7413 32.9384 84.6139 31.9427L86.2474 31.4218C86.3169 32.1627 86.6065 32.7879 87.1163 33.2972C87.6265 33.8066 88.3216 34.0613 89.2021 34.0613C90.013 34.0613 90.6386 33.8761 91.0789 33.5056C91.5191 33.1352 91.7393 32.6663 91.7393 32.099C91.7393 31.636 91.5829 31.2366 91.2701 30.9008C90.9572 30.5535 90.4996 30.3162 89.8972 30.1888L88.142 29.8068C87.2264 29.61 86.4965 29.2222 85.952 28.6433C85.4075 28.0645 85.1352 27.3293 85.1352 26.4379C85.1352 25.4654 85.5291 24.6145 86.3169 23.8852C87.1163 23.1443 88.0783 22.7738 89.2021 22.7738C90.4649 22.7738 91.4322 23.0806 92.1042 23.6942C92.7761 24.3078 93.199 25.0197 93.3728 25.8301ZM97.6652 24.3541V26.9936H99.4725V28.4697H97.6652V32.811C97.6652 33.2046 97.7521 33.4941 97.9258 33.6793C98.1112 33.8645 98.4124 33.9571 98.8295 33.9571C99.0728 33.9571 99.2871 33.934 99.4725 33.8877V35.2769C99.1944 35.3811 98.8237 35.4332 98.3603 35.4332C97.642 35.4332 97.0743 35.2248 96.6572 34.808C96.2402 34.3913 96.0316 33.8066 96.0316 33.0541V28.4697H94.4329V26.9936H94.8847C95.3133 26.9936 95.6319 26.8778 95.8405 26.6463C96.0606 26.4032 96.1707 26.0906 96.1707 25.7086V24.3541H97.6652ZM103.288 33.3667C103.798 33.8877 104.418 34.1481 105.148 34.1481C105.878 34.1481 106.492 33.8877 106.99 33.3667C107.499 32.8342 107.754 32.099 107.754 31.1613C107.754 30.2351 107.499 29.5116 106.99 28.9906C106.492 28.4581 105.878 28.1918 105.148 28.1918C104.418 28.1918 103.798 28.4581 103.288 28.9906C102.79 29.5116 102.541 30.2351 102.541 31.1613C102.541 32.099 102.79 32.8342 103.288 33.3667ZM102.072 28.0008C102.883 27.1557 103.908 26.7331 105.148 26.7331C106.387 26.7331 107.407 27.1557 108.206 28.0008C109.017 28.8343 109.423 29.8878 109.423 31.1613C109.423 32.4463 109.023 33.5114 108.224 34.3565C107.424 35.1901 106.399 35.6068 105.148 35.6068C103.896 35.6068 102.871 35.1901 102.072 34.3565C101.272 33.5114 100.873 32.4463 100.873 31.1613C100.873 29.8878 101.272 28.8343 102.072 28.0008ZM116.153 26.9068V28.6433C115.91 28.6086 115.672 28.5912 115.44 28.5912C113.911 28.5912 113.147 29.4479 113.147 31.1613V35.3464H111.513V26.9936H113.112V28.4523C113.621 27.3872 114.456 26.8547 115.614 26.8547C115.8 26.8547 115.979 26.872 116.153 26.9068ZM118.869 30.3104H123.439C123.416 29.6852 123.208 29.1759 122.814 28.7822C122.42 28.377 121.864 28.1745 121.145 28.1745C120.497 28.1745 119.964 28.3886 119.547 28.817C119.13 29.2337 118.904 29.7315 118.869 30.3104ZM123.683 32.4811L125.09 32.9673C124.847 33.743 124.395 34.3797 123.735 34.8775C123.074 35.3637 122.275 35.6068 121.337 35.6068C120.166 35.6068 119.17 35.2074 118.347 34.4086C117.537 33.5982 117.131 32.51 117.131 31.1439C117.131 29.8705 117.525 28.817 118.313 27.9834C119.101 27.1499 120.039 26.7331 121.128 26.7331C122.391 26.7331 123.376 27.1325 124.082 27.9313C124.789 28.7186 125.142 29.7779 125.142 31.1092C125.142 31.3176 125.131 31.4912 125.108 31.6302H118.817C118.828 32.3711 119.072 32.9789 119.547 33.4535C120.033 33.9282 120.63 34.1655 121.337 34.1655C122.53 34.1655 123.312 33.604 123.683 32.4811Z" fill="white"/>
<path opacity="0.6" d="M48.4241 15.4802V12.4834H49.1589C49.9268 12.4834 50.5624 12.9664 50.5624 13.9851C50.5624 15.0039 49.9202 15.4802 49.1523 15.4802H48.4241ZM49.1854 16.327C50.5227 16.327 51.5091 15.467 51.5091 13.9851C51.5091 12.5033 50.5293 11.6367 49.192 11.6367H47.5105V16.327H49.1854ZM53.7973 13.9785C53.7973 12.9201 54.5387 12.4173 55.2603 12.4173C55.9885 12.4173 56.73 12.9201 56.73 13.9785C56.73 15.037 55.9885 15.5397 55.2603 15.5397C54.5387 15.5397 53.7973 15.037 53.7973 13.9785ZM52.8506 13.9851C52.8506 15.4934 53.9892 16.4262 55.2603 16.4262C56.538 16.4262 57.6767 15.4934 57.6767 13.9851C57.6767 12.4702 56.538 11.5374 55.2603 11.5374C53.9892 11.5374 52.8506 12.4702 52.8506 13.9851ZM63.5435 14.8782L62.4975 11.6367H61.5508L60.5115 14.865L59.6508 11.6367H58.6843L59.9885 16.327H60.9418L62.0142 12.9862L63.0867 16.327H64.0268L65.3243 11.6367H64.3909L63.5435 14.8782ZM70.775 16.327V11.6367H69.8614V14.7393L67.9085 11.6367H66.7698V16.327H67.6834V12.9994L69.8151 16.327H70.775ZM75.678 16.327V15.4537H73.586V11.6367H72.6724V16.327H75.678ZM77.7179 13.9785C77.7179 12.9201 78.4593 12.4173 79.1809 12.4173C79.9091 12.4173 80.6506 12.9201 80.6506 13.9785C80.6506 15.037 79.9091 15.5397 79.1809 15.5397C78.4593 15.5397 77.7179 15.037 77.7179 13.9785ZM76.7712 13.9851C76.7712 15.4934 77.9098 16.4262 79.1809 16.4262C80.4586 16.4262 81.5973 15.4934 81.5973 13.9851C81.5973 12.4702 80.4586 11.5374 79.1809 11.5374C77.9098 11.5374 76.7712 12.4702 76.7712 13.9851ZM86.1749 16.327H87.1679L85.3805 11.6367H84.3213L82.5206 16.327H83.4871L83.8777 15.2553H85.7843L86.1749 16.327ZM84.831 12.6488L85.4798 14.4217H84.1822L84.831 12.6488ZM89.509 15.4802V12.4834H90.2439C91.0118 12.4834 91.6473 12.9664 91.6473 13.9851C91.6473 15.0039 91.0052 15.4802 90.2372 15.4802H89.509ZM90.2703 16.327C91.6076 16.327 92.594 15.467 92.594 13.9851C92.594 12.5033 91.6142 11.6367 90.277 11.6367H88.5954V16.327H90.2703ZM97.3457 13.9785C97.3457 12.9201 98.0871 12.4173 98.8087 12.4173C99.537 12.4173 100.278 12.9201 100.278 13.9785C100.278 15.037 99.537 15.5397 98.8087 15.5397C98.0871 15.5397 97.3457 15.037 97.3457 13.9785ZM96.399 13.9851C96.399 15.4934 97.5377 16.4262 98.8087 16.4262C100.086 16.4262 101.225 15.4934 101.225 13.9851C101.225 12.4702 100.086 11.5374 98.8087 11.5374C97.5377 11.5374 96.399 12.4702 96.399 13.9851ZM106.85 16.327V11.6367H105.936V14.7393L103.983 11.6367H102.845V16.327H103.758V12.9994L105.89 16.327H106.85ZM114.667 12.5033V11.6367H110.781V12.5033H112.263V16.327H113.184V12.5033H114.667ZM120.017 16.327V11.6367H119.096V13.5221H117.051V11.6367H116.137V16.327H117.051V14.3821H119.096V16.327H120.017ZM124.856 16.327V15.467H122.83V14.3821H124.664V13.5684H122.83V12.4967H124.856V11.6367H121.917V16.327H124.856Z" fill="white"/>
<path d="M36.112 30.3989C35.5746 31.5881 35.318 32.1189 34.6261 33.1696C33.662 34.6369 32.3017 36.4644 30.6161 36.4798C29.1189 36.4938 28.7341 35.5061 26.7014 35.518C24.6689 35.53 24.2453 36.4975 22.7479 36.4835C21.0624 36.4685 19.7746 34.8182 18.8094 33.3499C16.1117 29.2463 15.8298 24.4311 17.4937 21.8712C18.676 20.0509 20.5421 18.9873 22.2959 18.9873C24.0818 18.9873 25.2047 19.9657 26.6818 19.9657C28.1144 19.9657 28.987 18.9858 31.0522 18.9858C32.6131 18.9858 34.2671 19.8349 35.4458 21.3021C31.5838 23.4165 32.2118 28.9254 36.112 30.3989Z" fill="white"/>
<path d="M29.7033 16.4178C30.4537 15.4554 31.0226 14.0978 30.8157 12.709C29.59 12.7928 28.1573 13.5722 27.3205 14.5877C26.5607 15.5093 25.9333 16.8762 26.1774 18.2049C27.5145 18.2469 28.899 17.4483 29.7033 16.4178Z" fill="white"/>
</svg>
