<svg width="157" height="49" viewBox="0 0 157 49" fill="none" xmlns="http://www.w3.org/2000/svg">
<rect y="0.873749" width="156.475" height="47.2525" rx="10" fill="black"/>
<path d="M61.0284 35.3463H59.6551L59.4987 33.6098C59.1973 34.1539 58.7048 34.6228 58.021 35.0164C57.3373 35.41 56.5144 35.6068 55.5525 35.6068C54.4979 35.6068 53.5244 35.3695 52.6321 34.8948C51.7397 34.4086 51.0038 33.6677 50.4243 32.6721C49.8564 31.6764 49.5725 30.513 49.5725 29.1816C49.5725 27.8503 49.8738 26.6868 50.4765 25.6912C51.0791 24.6955 51.8324 23.9604 52.7364 23.4858C53.6519 23.0111 54.6312 22.7738 55.6742 22.7738C56.9954 22.7738 58.1427 23.1153 59.1162 23.7983C60.1013 24.4698 60.7735 25.367 61.1327 26.49L59.5856 27.1499C59.3074 26.2584 58.8207 25.5696 58.1253 25.0834C57.4416 24.5856 56.6245 24.3367 55.6742 24.3367C54.4805 24.3367 53.4549 24.7592 52.5973 25.6043C51.7397 26.4495 51.3109 27.6419 51.3109 29.1816C51.3109 30.7329 51.7281 31.9369 52.5625 32.7936C53.4085 33.6387 54.4226 34.0613 55.6047 34.0613C56.2537 34.0613 56.8273 33.9571 57.3257 33.7487C57.8356 33.5403 58.2296 33.2683 58.5078 32.9325C58.7975 32.5852 59.0119 32.2379 59.151 31.8906C59.3016 31.5433 59.3886 31.196 59.4117 30.8487H55.1353V29.3205H61.0284V35.3463ZM65.1944 33.3667C65.7043 33.8876 66.3244 34.1481 67.0545 34.1481C67.7846 34.1481 68.3988 33.8876 68.8972 33.3667C69.4071 32.8341 69.6621 32.099 69.6621 31.1613C69.6621 30.2351 69.4071 29.5116 68.8972 28.9906C68.3988 28.4581 67.7846 28.1918 67.0545 28.1918C66.3244 28.1918 65.7043 28.4581 65.1944 28.9906C64.6961 29.5116 64.4469 30.2351 64.4469 31.1613C64.4469 32.099 64.6961 32.8341 65.1944 33.3667ZM63.9776 28.0008C64.7888 27.1556 65.8144 26.7331 67.0545 26.7331C68.2945 26.7331 69.3144 27.1556 70.114 28.0008C70.9253 28.8343 71.3309 29.8878 71.3309 31.1613C71.3309 32.4463 70.9311 33.5114 70.1314 34.3565C69.3318 35.19 68.3061 35.6068 67.0545 35.6068C65.8029 35.6068 64.7772 35.19 63.9776 34.3565C63.1779 33.5114 62.7781 32.4463 62.7781 31.1613C62.7781 29.8878 63.1779 28.8343 63.9776 28.0008ZM75.1426 33.3667C75.6525 33.8876 76.2725 34.1481 77.0027 34.1481C77.7328 34.1481 78.347 33.8876 78.8453 33.3667C79.3553 32.8341 79.6102 32.099 79.6102 31.1613C79.6102 30.2351 79.3553 29.5116 78.8453 28.9906C78.347 28.4581 77.7328 28.1918 77.0027 28.1918C76.2725 28.1918 75.6525 28.4581 75.1426 28.9906C74.6442 29.5116 74.3951 30.2351 74.3951 31.1613C74.3951 32.099 74.6442 32.8341 75.1426 33.3667ZM73.9257 28.0008C74.737 27.1556 75.7626 26.7331 77.0027 26.7331C78.2427 26.7331 79.2625 27.1556 80.0622 28.0008C80.8734 28.8343 81.2791 29.8878 81.2791 31.1613C81.2791 32.4463 80.8792 33.5114 80.0796 34.3565C79.2799 35.19 78.2543 35.6068 77.0027 35.6068C75.751 35.6068 74.7254 35.19 73.9257 34.3565C73.1261 33.5114 72.7262 32.4463 72.7262 31.1613C72.7262 29.8878 73.1261 28.8343 73.9257 28.0008ZM82.7613 35.7978L84.3433 35.4332C84.4012 36.0236 84.6388 36.5098 85.056 36.8918C85.4732 37.2855 85.9947 37.4823 86.6205 37.4823C88.3241 37.4823 89.1759 36.5793 89.1759 34.7733V33.5751C88.9673 33.9803 88.637 34.3102 88.1851 34.5649C87.7447 34.8196 87.2232 34.9469 86.6205 34.9469C85.508 34.9469 84.5866 34.5707 83.8565 33.8182C83.138 33.0541 82.7787 32.0816 82.7787 30.9008C82.7787 29.7547 83.138 28.7938 83.8565 28.0181C84.575 27.2309 85.4964 26.8373 86.6205 26.8373C87.8953 26.8373 88.7529 27.2772 89.1933 28.1571V26.9936H90.8102V34.7212C90.8102 35.2769 90.7349 35.792 90.5842 36.2667C90.4451 36.7529 90.2191 37.1986 89.9061 37.6038C89.5932 38.009 89.1528 38.3274 88.5849 38.5589C88.0286 38.7905 87.3738 38.9062 86.6205 38.9062C85.5891 38.9062 84.7141 38.611 83.9956 38.0206C83.277 37.4418 82.8656 36.7008 82.7613 35.7978ZM86.8639 33.5751C87.5708 33.5751 88.1445 33.3319 88.5849 32.8457C89.0253 32.3479 89.2455 31.6996 89.2455 30.9008C89.2455 30.102 89.0253 29.4595 88.5849 28.9732C88.1445 28.4754 87.5708 28.2265 86.8639 28.2265C86.1454 28.2265 85.5601 28.4696 85.1081 28.9559C84.6678 29.4421 84.4476 30.0904 84.4476 30.9008C84.4476 31.7227 84.662 32.3768 85.0908 32.8631C85.5311 33.3377 86.1222 33.5751 86.8639 33.5751ZM95.0535 35.3463H93.4194V22.7738H95.0535V35.3463ZM98.8937 30.3104H103.466C103.442 29.6852 103.234 29.1758 102.84 28.7822C102.446 28.377 101.889 28.1744 101.171 28.1744C100.522 28.1744 99.9888 28.3886 99.5716 28.8169C99.1544 29.2337 98.9284 29.7315 98.8937 30.3104ZM103.709 32.481L105.117 32.9673C104.874 33.7429 104.422 34.3797 103.761 34.8775C103.101 35.3637 102.301 35.6068 101.362 35.6068C100.192 35.6068 99.195 35.2074 98.3721 34.4086C97.5609 33.5982 97.1553 32.51 97.1553 31.1439C97.1553 29.8704 97.5493 28.8169 98.3374 27.9834C99.1254 27.1499 100.064 26.7331 101.154 26.7331C102.417 26.7331 103.402 27.1325 104.109 27.9313C104.816 28.7185 105.169 29.7778 105.169 31.1092C105.169 31.3176 105.158 31.4912 105.134 31.6301H98.8415C98.8531 32.3711 99.0965 32.9788 99.5716 33.4535C100.058 33.9282 100.655 34.1655 101.362 34.1655C102.556 34.1655 103.338 33.604 103.709 32.481ZM113.479 28.7822H115.947C116.677 28.7822 117.257 28.597 117.686 28.2265C118.114 27.8445 118.329 27.3351 118.329 26.6984C118.329 26.05 118.114 25.5349 117.686 25.1528C117.257 24.7592 116.677 24.5624 115.947 24.5624H113.479V28.7822ZM116.26 30.3104H113.479V35.3463H111.775V23.0343H116.26C117.384 23.0343 118.3 23.3816 119.007 24.0762C119.714 24.7708 120.067 25.6391 120.067 26.681C120.067 27.7345 119.714 28.6028 119.007 29.2858C118.3 29.9688 117.384 30.3104 116.26 30.3104ZM123.438 35.3463H121.804V22.7738H123.438V35.3463ZM125.696 33.1062C125.696 32.3884 125.928 31.8154 126.392 31.387C126.855 30.9471 127.469 30.675 128.234 30.5708L130.494 30.2409C130.923 30.183 131.137 29.9746 131.137 29.6157C131.137 29.1758 130.987 28.8169 130.685 28.5391C130.384 28.2612 129.932 28.1223 129.329 28.1223C128.773 28.1223 128.333 28.2786 128.008 28.5912C127.684 28.8922 127.492 29.2974 127.435 29.8068L125.87 29.4421C125.951 28.6433 126.316 27.995 126.965 27.4972C127.614 26.9878 128.391 26.7331 129.295 26.7331C130.477 26.7331 131.352 27.0225 131.92 27.6014C132.487 28.1686 132.771 28.898 132.771 29.7894V33.9745C132.771 34.4723 132.806 34.9296 132.876 35.3463H131.276C131.218 34.999 131.189 34.6228 131.189 34.2176C130.958 34.588 130.616 34.9122 130.164 35.19C129.723 35.4679 129.167 35.6068 128.495 35.6068C127.672 35.6068 127 35.3637 126.478 34.8775C125.957 34.3797 125.696 33.7892 125.696 33.1062ZM128.721 34.2349C129.451 34.2349 130.036 34.0381 130.477 33.6445C130.917 33.2509 131.137 32.6257 131.137 31.7691V31.387L128.582 31.7691C128.211 31.8269 127.915 31.9601 127.695 32.1685C127.475 32.3768 127.365 32.6605 127.365 33.0194C127.365 33.3435 127.487 33.6272 127.73 33.8703C127.985 34.1134 128.315 34.2349 128.721 34.2349ZM137.234 38.8368H135.444L137.53 34.426L133.931 26.9936H135.809L138.416 32.7589L140.919 26.9936H142.675L137.234 38.8368Z" fill="white"/>
<path opacity="0.6" d="M54.4059 16.3269V13.8859H52.0616V14.6797H53.545C53.4921 15.0105 53.1543 15.5926 52.2868 15.5926C51.4987 15.5926 50.8034 15.0436 50.8034 13.9851C50.8034 12.8737 51.5716 12.3908 52.2802 12.3908C53.0417 12.3908 53.4324 12.8737 53.5517 13.2905L54.4258 12.9795C54.194 12.2585 53.5119 11.5374 52.2802 11.5374C51.0087 11.5374 49.8762 12.4702 49.8762 13.9851C49.8762 15.5 50.9557 16.4262 52.2206 16.4262C52.9291 16.4262 53.3927 16.1086 53.6046 15.7911L53.6642 16.3269H54.4059ZM59.5102 16.3269V15.4669H57.4837V14.382H59.3181V13.5683H57.4837V12.4966H59.5102V11.6366H56.5698V16.3269H59.5102ZM65.2005 12.5032V11.6366H61.3131V12.5032H62.7965V16.3269H63.717V12.5032H65.2005ZM70.8905 16.3269V11.6366H69.9634V16.3269H70.8905ZM76.6604 12.5032V11.6366H72.773V12.5032H74.2564V16.3269H75.1769V12.5032H76.6604ZM82.092 13.9785C82.092 12.92 82.8338 12.4172 83.5556 12.4172C84.2841 12.4172 85.0258 12.92 85.0258 13.9785C85.0258 15.0369 84.2841 15.5397 83.5556 15.5397C82.8338 15.5397 82.092 15.0369 82.092 13.9785ZM81.145 13.9851C81.145 15.4934 82.2841 16.4262 83.5556 16.4262C84.8337 16.4262 85.9728 15.4934 85.9728 13.9851C85.9728 12.4702 84.8337 11.5374 83.5556 11.5374C82.2841 11.5374 81.145 12.4702 81.145 13.9851ZM92.0137 16.3269V11.6366H91.0998V14.7392L89.1459 11.6366H88.0068V16.3269H88.9207V12.9994L91.0535 16.3269H92.0137Z" fill="white"/>
<path d="M23.1769 35.0078C22.6866 35.3243 22.0977 35.42 21.5452 35.2897L31.2529 25.5923L34.3991 28.7352L23.1769 35.0078Z" fill="#F34234"/>
<path d="M20.3404 34.5016C20.0697 34.142 19.9138 33.7005 19.9138 33.2335V15.9596C19.9138 15.4926 20.0697 15.0511 20.3404 14.6915L30.2559 24.5965L20.3404 34.5016Z" fill="#00D6FF"/>
<path d="M38.5055 26.44L35.6778 28.0204L32.25 24.5962L35.6781 21.1719L38.506 22.7524C39.1835 23.1316 39.588 23.8208 39.588 24.5962C39.588 25.3716 39.1835 26.0608 38.5055 26.44Z" fill="#FCBA3D"/>
<path d="M31.2529 23.6009L21.5459 13.9041C21.705 13.8666 21.867 13.8465 22.0289 13.8465C22.4292 13.8465 22.8281 13.9602 23.177 14.1854L34.3993 20.4579L31.2529 23.6009Z" fill="#0DB15A"/>
</svg>
